<svg width="75" height="72" viewBox="0 0 75 72" fill="none" xmlns="http://www.w3.org/2000/svg">
<path d="M14.4578 0.766509L10.3414 6.63378C9.70549 7.53966 9.37082 8.5849 9.37082 9.64407V10.0343C9.37082 13.1143 12.3661 15.6089 16.0643 15.6089C19.7624 15.6089 22.7577 13.1143 22.7577 10.0343V9.64407C22.7577 8.5849 22.423 7.55359 21.7871 6.63378L17.6707 0.766509C17.336 0.292667 16.7336 0 16.0643 0C15.3949 0 14.7925 0.292667 14.4578 0.766509ZM35.8768 0.766509L31.7604 6.63378C31.1245 7.53966 30.7898 8.5849 30.7898 9.64407V10.0343C30.7898 13.1143 33.7851 15.6089 37.4833 15.6089C41.1814 15.6089 44.1767 13.1143 44.1767 10.0343V9.64407C44.1767 8.5849 43.842 7.55359 43.2062 6.63378L39.0897 0.766509C38.755 0.292667 38.1526 0 37.4833 0C36.8139 0 36.2115 0.292667 35.8768 0.766509ZM53.1794 6.63378C52.5435 7.53966 52.2088 8.5849 52.2088 9.64407V10.0343C52.2088 13.1143 55.2042 15.6089 58.9023 15.6089C62.6004 15.6089 65.5957 13.1143 65.5957 10.0343V9.64407C65.5957 8.5849 65.261 7.55359 64.6252 6.63378L60.5087 0.766509C60.174 0.292667 59.5716 0 58.9023 0C58.2329 0 57.6305 0.292667 57.2958 0.766509L53.1794 6.63378ZM21.419 24.5283C21.419 22.0615 19.0261 20.0686 16.0643 20.0686C13.1024 20.0686 10.7095 22.0615 10.7095 24.5283V31.2178C4.80254 31.2178 0 35.2176 0 40.1372V50.0321C1.38889 50.7568 3.02878 51.2864 4.81928 51.2864C7.07831 51.2864 9.37082 50.4363 11.245 49.4189C12.1486 48.9311 12.9016 48.4294 13.4203 48.0671C13.6714 47.8859 13.8722 47.7326 14.006 47.635C14.073 47.5793 14.1232 47.5514 14.1399 47.5235L14.1566 47.5096C14.6754 47.0636 15.3949 46.8267 16.1479 46.8406C16.9009 46.8546 17.587 47.1333 18.089 47.5932L18.1058 47.6072C18.1225 47.6211 18.1727 47.6629 18.2229 47.7047C18.34 47.8023 18.5074 47.9416 18.7416 48.1228C19.2102 48.4852 19.8795 48.9729 20.7162 49.4468C22.423 50.4363 24.5649 51.2725 26.7905 51.2725C29.0161 51.2725 31.158 50.4363 32.8648 49.4468C33.7015 48.959 34.3708 48.4852 34.8394 48.1228C35.0736 47.9416 35.241 47.8023 35.3581 47.7047C35.4083 47.6629 35.4585 47.6211 35.4752 47.6072L35.492 47.5932C35.994 47.1054 36.7303 46.8406 37.5 46.8406C38.2697 46.8406 39.006 47.1194 39.508 47.5932L39.5248 47.6072C39.5415 47.6211 39.5917 47.6629 39.6419 47.7047C39.759 47.8023 39.9264 47.9416 40.1606 48.1228C40.6292 48.4852 41.2985 48.9729 42.1352 49.4468C43.842 50.4363 45.9839 51.2725 48.2095 51.2725C50.4351 51.2725 52.577 50.4363 54.2838 49.4468C55.1205 48.959 55.7898 48.4852 56.2584 48.1228C56.4926 47.9416 56.66 47.8023 56.7771 47.7047C56.8273 47.6629 56.8775 47.6211 56.8942 47.6072L56.911 47.5932C57.3963 47.1194 58.0991 46.8546 58.8521 46.8406C59.6051 46.8267 60.3079 47.0636 60.8434 47.5096L60.8601 47.5235C60.8936 47.5514 60.927 47.5793 60.994 47.635C61.1278 47.7326 61.3119 47.8859 61.5797 48.0671C62.0984 48.4294 62.8347 48.9311 63.755 49.4189C65.6292 50.4363 67.9217 51.2864 70.1807 51.2864C71.9712 51.2864 73.6111 50.7429 75 50.0321V40.1372C75 35.2176 70.1975 31.2178 64.2905 31.2178V24.5283C64.2905 22.0615 61.8976 20.0686 58.9357 20.0686C55.9739 20.0686 53.581 22.0615 53.581 24.5283V31.2178H42.838V24.5283C42.838 22.0615 40.4451 20.0686 37.4833 20.0686C34.5214 20.0686 32.1285 22.0615 32.1285 24.5283V31.2178H21.419V24.5283ZM74.9665 54.9935C73.5442 55.4534 71.921 55.7461 70.1473 55.7461C66.3822 55.7461 63.0522 54.3664 60.8099 53.1539C60.1238 52.7776 59.5047 52.4013 58.9859 52.0668C58.5174 52.4013 57.9652 52.7637 57.3461 53.1121C55.1874 54.3524 51.9746 55.7461 48.1928 55.7461C44.411 55.7461 41.1981 54.3524 39.0562 53.1121C38.4706 52.7776 37.9351 52.4292 37.4833 52.1086C37.0315 52.4292 36.496 52.7637 35.9103 53.1121C33.7684 54.3524 30.5556 55.7461 26.7738 55.7461C22.992 55.7461 19.7791 54.3524 17.6372 53.1121C17.0181 52.7497 16.4659 52.3874 15.9973 52.0668C15.4786 52.4013 14.8594 52.7776 14.1734 53.1539C11.9143 54.3664 8.58434 55.7461 4.81928 55.7461C3.04552 55.7461 1.42236 55.4395 0 54.9935V66.8953C0 69.3621 2.3929 71.355 5.35475 71.355H69.6118C72.5736 71.355 74.9665 69.3621 74.9665 66.8953V54.9935Z" fill="#EF7B61"/>
</svg>
