<svg width="76" height="76" viewBox="0 0 76 76" fill="none" xmlns="http://www.w3.org/2000/svg">
<path d="M57.187 0.181561C58.6453 -0.287189 60.2078 0.166912 61.2755 1.36808L67.4474 8.31144L63.9969 9.46867C56.4448 11.9003 51.2234 15.2695 47.1219 19.3417C43.0594 23.37 40.1948 27.9989 37.3432 32.6571L37.0437 33.1405C31.4578 42.2958 25.3901 52.2421 9.47863 61.1923L4.93436 63.7558L1.22342 59.5663C0.272896 58.497 -0.156791 56.9882 0.0515422 55.4941C0.259876 53.9999 1.10623 52.7255 2.30415 52.0517C17.7208 43.3945 23.5541 33.8437 29.075 24.8056L29.3745 24.3075C32.213 19.6493 35.2208 14.8007 39.4916 10.5527C43.8406 6.23137 49.3614 2.70109 57.187 0.181561ZM8.04633 67.2421L11.3536 65.3818C28.2156 55.9042 34.7781 45.1523 40.4943 35.7919L40.7807 35.3085C43.6583 30.6064 46.2625 26.4462 49.8823 22.8427C53.463 19.2831 58.1375 16.2216 65.1557 13.9657L65.1818 13.9511L70.7937 12.0614L73.7885 15.4306C74.8302 16.6025 75.2469 18.3163 74.8693 19.9277C74.4917 21.539 73.3979 22.7987 71.9786 23.2528C65.2208 25.4208 60.8328 28.3359 57.5125 31.6318C54.114 35.0009 51.6401 38.9413 48.7495 43.6581L48.463 44.1269C42.6818 53.6044 35.8719 64.7519 18.5281 74.5077C16.9265 75.4159 14.9864 75.0497 13.7234 73.6288L8.04633 67.2421Z" fill="#EF7B61"/>
</svg>
