<svg width="75" height="72" viewBox="0 0 75 72" fill="none" xmlns="http://www.w3.org/2000/svg">
<path d="M50.7872 0.836191C49.4542 2.36921 46.876 5.89515 46.876 10.0343C46.876 15.6089 49.1172 17.7412 52.7354 21.1835C56.3536 24.6258 58.5948 26.7581 64.4542 26.7581C68.8047 26.7581 72.5108 24.3053 74.1221 23.0371C74.7081 22.5772 75.001 21.8943 75.001 21.1835C75.001 20.4727 74.7081 19.7899 74.1221 19.3439C72.4522 18.0757 68.5118 15.6089 63.2823 15.6089C58.5948 15.6089 57.4229 16.7238 57.4229 16.7238C57.4229 16.7238 58.5948 15.6089 58.5948 11.1492C58.5948 6.17388 56.002 2.42495 54.669 0.836191C54.2003 0.27873 53.4825 0 52.7354 0C51.9883 0 51.2706 0.27873 50.7872 0.836191ZM35.8311 18.9537C29.9717 18.9537 24.5372 21.4762 20.9336 25.6711L29.796 34.1027C30.7042 34.9667 30.7042 36.3883 29.796 37.2523C28.8878 38.1164 27.3936 38.1164 26.4854 37.2523L18.3848 29.5454V29.5594L0.323298 66.6026C-0.291936 67.8708 -0.0136161 69.376 1.02642 70.3794C2.06646 71.3829 3.64849 71.6337 4.99615 71.0484L24.7276 62.352L17.0958 55.0911C16.1876 54.227 16.1876 52.8055 17.0958 51.9414C18.004 51.0773 19.4981 51.0773 20.4063 51.9414L29.254 60.3451L43.9317 53.8786C50.7286 50.8822 55.0938 44.4018 55.0938 37.2663C55.0792 27.1483 46.4659 18.9537 35.8311 18.9537Z" fill="#EF7B61"/>
</svg>
