<svg width="75" height="72" viewBox="0 0 75 72" fill="none" xmlns="http://www.w3.org/2000/svg">
<path d="M37.7344 1.72745C37.6094 0.924778 36.9688 0.270749 36.1251 0.151834C32.6722 -0.308959 29.1568 0.285613 26.0633 1.84636L14.5016 7.71776C11.4237 9.27851 8.93955 11.7311 7.40841 14.7188L1.67444 25.9562C0.143303 28.944 -0.356662 32.333 0.25267 35.6032L2.51813 47.9108C3.12746 51.1958 4.79922 54.1984 7.31466 56.5172L16.7359 65.198C19.2513 67.5168 22.4542 69.0032 25.9071 69.464L38.8749 71.2031C42.3278 71.6639 45.8432 71.0694 48.9367 69.5086L60.4984 63.6372C63.5763 62.0765 66.0604 59.6239 67.5916 56.6213L73.3256 45.3987C74.8567 42.411 75.3567 39.022 74.7473 35.7518C74.6067 34.964 73.9193 34.3694 73.0912 34.2505C65.0449 33.0316 58.5922 27.2494 56.7642 19.7727C56.483 18.643 55.5143 17.7809 54.3113 17.6025C45.7807 16.3093 39.0468 9.87308 37.7187 1.72745H37.7344ZM30.0005 19.0295C31.3265 19.0295 32.5982 19.5306 33.5358 20.4227C34.4734 21.3147 35.0002 22.5245 35.0002 23.7861C35.0002 25.0476 34.4734 26.2574 33.5358 27.1495C32.5982 28.0415 31.3265 28.5426 30.0005 28.5426C28.6745 28.5426 27.4029 28.0415 26.4653 27.1495C25.5276 26.2574 25.0009 25.0476 25.0009 23.7861C25.0009 22.5245 25.5276 21.3147 26.4653 20.4227C27.4029 19.5306 28.6745 19.0295 30.0005 19.0295ZM20.0013 47.5689C20.0013 46.3074 20.528 45.0976 21.4656 44.2055C22.4032 43.3135 23.6749 42.8124 25.0009 42.8124C26.3269 42.8124 27.5986 43.3135 28.5362 44.2055C29.4738 45.0976 30.0005 46.3074 30.0005 47.5689C30.0005 48.8304 29.4738 50.0403 28.5362 50.9323C27.5986 51.8244 26.3269 52.3255 25.0009 52.3255C23.6749 52.3255 22.4032 51.8244 21.4656 50.9323C20.528 50.0403 20.0013 48.8304 20.0013 47.5689ZM54.9987 38.0558C56.3247 38.0558 57.5964 38.5569 58.534 39.4489C59.4716 40.341 59.9984 41.5508 59.9984 42.8124C59.9984 44.0739 59.4716 45.2837 58.534 46.1758C57.5964 47.0678 56.3247 47.5689 54.9987 47.5689C53.6728 47.5689 52.4011 47.0678 51.4635 46.1758C50.5258 45.2837 49.9991 44.0739 49.9991 42.8124C49.9991 41.5508 50.5258 40.341 51.4635 39.4489C52.4011 38.5569 53.6728 38.0558 54.9987 38.0558Z" fill="#EF7B61"/>
</svg>
