<svg width="76" height="72" viewBox="0 0 76 72" fill="none" xmlns="http://www.w3.org/2000/svg">
<path d="M56.2539 33.4476C63.1549 33.4476 68.7539 27.4549 68.7539 20.0686C68.7539 12.6822 63.1549 6.68953 56.2539 6.68953C51.6315 6.68953 47.582 9.37928 45.4205 13.3791H38.5716C41.1497 5.58854 48.0898 0 56.2539 0C66.6054 0 75.0039 8.98906 75.0039 20.0686C75.0039 31.1481 66.6054 40.1372 56.2539 40.1372C52.6471 40.1372 49.2877 39.0501 46.4231 37.1687L51.0325 32.2352C52.621 33.0156 54.3919 33.4476 56.2539 33.4476ZM0.238235 19.9014C0.720006 18.6471 1.86584 17.8387 3.12886 17.8387H51.0455C52.3085 17.8387 53.4544 18.6471 53.9361 19.9014C54.4179 21.1556 54.1575 22.5911 53.2591 23.5527L30.2122 48.2204V64.6655H38.5455C40.2773 64.6655 41.6705 66.1567 41.6705 68.0102C41.6705 69.8638 40.2773 71.355 38.5455 71.355H27.0872H15.6289C13.8971 71.355 12.5039 69.8638 12.5039 68.0102C12.5039 66.1567 13.8971 64.6655 15.6289 64.6655H23.9622V48.2064L0.915319 23.5527C0.016881 22.5911 -0.243536 21.1556 0.238235 19.9014Z" fill="white"/>
</svg>
