<svg width="75" height="72" viewBox="0 0 75 72" fill="none" xmlns="http://www.w3.org/2000/svg">
<path d="M7.04688 30.5807C4.53125 30.5807 2.5 28.5101 2.5 25.9458C2.5 25.6432 2.53125 25.3565 2.59375 25.0539C3.42188 21.7091 9.8125 0 37.5 0C65.1875 0 71.5781 21.7091 72.4062 25.0539C72.4844 25.3565 72.5 25.6432 72.5 25.9458C72.5 28.5101 70.4688 30.5807 67.9531 30.5807H7.04688ZM20 15.2904C20 14.6145 19.7366 13.9663 19.2678 13.4884C18.7989 13.0105 18.163 12.742 17.5 12.742C16.837 12.742 16.2011 13.0105 15.7322 13.4884C15.2634 13.9663 15 14.6145 15 15.2904C15 15.9662 15.2634 16.6144 15.7322 17.0923C16.2011 17.5703 16.837 17.8387 17.5 17.8387C18.163 17.8387 18.7989 17.5703 19.2678 17.0923C19.7366 16.6144 20 15.9662 20 15.2904ZM57.5 17.8387C58.163 17.8387 58.7989 17.5703 59.2678 17.0923C59.7366 16.6144 60 15.9662 60 15.2904C60 14.6145 59.7366 13.9663 59.2678 13.4884C58.7989 13.0105 58.163 12.742 57.5 12.742C56.837 12.742 56.2011 13.0105 55.7322 13.4884C55.2634 13.9663 55 14.6145 55 15.2904C55 15.9662 55.2634 16.6144 55.7322 17.0923C56.2011 17.5703 56.837 17.8387 57.5 17.8387ZM40 10.1936C40 9.51769 39.7366 8.8695 39.2678 8.39158C38.7989 7.91367 38.163 7.64518 37.5 7.64518C36.837 7.64518 36.2011 7.91367 35.7322 8.39158C35.2634 8.8695 35 9.51769 35 10.1936C35 10.8694 35.2634 11.5176 35.7322 11.9956C36.2011 12.4735 36.837 12.742 37.5 12.742C38.163 12.742 38.7989 12.4735 39.2678 11.9956C39.7366 11.5176 40 10.8694 40 10.1936ZM0 43.3227C0 39.1019 3.35938 35.6775 7.5 35.6775H67.5C71.6406 35.6775 75 39.1019 75 43.3227C75 47.5434 71.6406 50.9678 67.5 50.9678H7.5C3.35938 50.9678 0 47.5434 0 43.3227ZM2.5 58.613C2.5 57.2114 3.625 56.0646 5 56.0646H70C71.375 56.0646 72.5 57.2114 72.5 58.613V61.1614C72.5 66.7838 68.0156 71.355 62.5 71.355H12.5C6.98438 71.355 2.5 66.7838 2.5 61.1614V58.613Z" fill="#EF7B61"/>
</svg>
